<?xml version="1.0" standalone="no"?>
<!DOCTYPE svg PUBLIC "-//W3C//DTD SVG 20010904//EN"
 "http://www.w3.org/TR/2001/REC-SVG-20010904/DTD/svg10.dtd">
<svg version="1.0" xmlns="http://www.w3.org/2000/svg"
 width="700.000000pt" height="700.000000pt" viewBox="0 0 700.000000 700.000000"
 preserveAspectRatio="xMidYMid meet">
<metadata>
Created by potrace 1.11, written by Peter Selinger 2001-2013
</metadata>
<g transform="translate(0.000000,700.000000) scale(0.100000,-0.100000)"
fill="#000000" stroke="none">
<path d="M2300 6142 l0 -99 161 -7 c261 -11 385 -42 433 -109 19 -26 21 -45
24 -226 l3 -198 -208 -6 c-535 -13 -912 -161 -1228 -481 -271 -274 -396 -607
-382 -1016 6 -172 26 -275 77 -386 112 -247 330 -401 935 -659 360 -154 422
-190 511 -296 85 -102 114 -189 114 -345 0 -87 -2 -103 -17 -109 -10 -5 -109
-10 -220 -13 l-203 -4 0 -100 c0 -80 3 -99 14 -95 7 3 86 9 175 13 128 5 161
4 161 -6 0 -25 -146 -155 -215 -192 -252 -133 -654 -142 -1015 -21 -193 64
-411 185 -598 330 -46 36 -85 63 -87 62 -3 -3 -161 -827 -168 -877 -4 -28 372
-166 614 -226 365 -91 713 -116 1042 -75 642 79 1123 424 1303 933 l28 79 245
-6 c135 -4 255 -8 266 -10 19 -2 20 5 23 96 l3 97 -133 0 c-122 0 -280 13
-334 26 -22 6 -23 7 -17 167 8 249 -32 450 -123 615 l-34 63 0 494 0 495 398
0 c222 0 425 -5 460 -10 275 -45 480 -203 573 -444 61 -158 70 -225 79 -616 9
-383 14 -428 71 -585 123 -338 467 -535 934 -535 173 0 280 42 390 154 131
134 194 280 202 471 5 99 3 113 -14 134 -27 33 -79 33 -103 1 -10 -13 -26 -62
-35 -109 -41 -207 -104 -347 -195 -432 -58 -55 -120 -79 -204 -79 -117 0 -202
63 -271 199 -59 118 -83 224 -135 596 -54 379 -77 506 -116 630 -68 214 -207
392 -416 533 -49 33 -222 121 -279 141 l-34 12 105 33 c456 140 800 417 914
734 30 84 31 93 31 252 0 145 -3 174 -23 240 -88 279 -294 489 -647 660 -196
96 -397 154 -650 191 -55 8 -411 13 -1132 16 l-1053 5 0 -100z m1892 -113
c435 -30 632 -96 789 -267 73 -80 139 -208 170 -332 30 -119 38 -397 15 -526
-64 -373 -293 -600 -683 -678 -134 -27 -296 -36 -670 -36 l-363 0 0 210 c0
116 2 210 4 210 13 0 130 -77 184 -120 34 -28 67 -51 74 -53 7 -1 39 138 93
411 l82 414 -56 25 c-69 30 -344 123 -366 123 -15 0 -16 24 -13 253 5 375 5
375 380 376 113 1 275 -4 360 -10z m-1354 -1246 l82 -6 0 -634 0 -633 -37 19
c-21 10 -144 66 -273 124 -130 59 -274 127 -320 153 -174 95 -290 196 -337
293 -24 48 -28 67 -26 131 3 143 56 255 170 359 170 157 412 220 741 194z"/>
</g>
</svg>
